<?xml version="1.0" standalone="no"?>
 <!DOCTYPE svg PUBLIC "-//W3C//DTD SVG 1.1//EN" 
 "http://www.w3.org/Graphics/SVG/1.1/DTD/svg11.dtd"> 
<svg xmlns="http://www.w3.org/2000/svg" version="1.1" 
    width="29.7002cm" height="21.0007cm" viewBox="0 0 116930 82680 ">
<title>SVG Picture created as RPi_Hat-B.Cu.svg date 2016/02/22 18:24:50 </title>
  <desc>Picture generated by PCBNEW </desc>
<g style="fill:#000000; fill-opacity:1;stroke:#000000; stroke-opacity:1;
stroke-linecap:round; stroke-linejoin:round; "
 transform="translate(0 0) scale(1 1)">
</g>
<g style="fill:#000000; fill-opacity:0.0; 
stroke:#000000; stroke-width:-0.000393701; stroke-opacity:1; 
stroke-linecap:round; stroke-linejoin:round;">
</g>
<g style="fill:#000000; fill-opacity:0.0; 
stroke:#000000; stroke-width:39.3701; stroke-opacity:1; 
stroke-linecap:round; stroke-linejoin:round;">
<path d="M72283.5 23228.3 A1181.1 1181.1 0.0 0 0 71102.4 22047.2 " />
<path d="M64015.7 42519.7 A393.701 393.701 0.0 0 0 64803.1 42519.7 " />
<path d="M64803.1 36614.2 A393.701 393.701 0.0 0 0 64015.7 36614.2 " />
<path d="M64803 36614
L64803 42519
" />
<path d="M64015 36614
L64015 42519
" />
<path d="M47086.6 36417.3 A393.701 393.701 0.0 0 0 46692.9 36811 " />
<path d="M48267.7 36417.3 A393.701 393.701 0.0 0 0 48661.4 36023.6 " />
<path d="M48661.4 30118.1 A393.701 393.701 0.0 0 0 48267.7 29724.4 " />
<path d="M46692.9 29330.7 A393.701 393.701 0.0 0 0 47086.6 29724.4 " />
<path d="M71102.4 44094.5 A1181.1 1181.1 0.0 0 0 72283.5 42913.4 " />
<path d="M46692.9 42913.4 A1181.1 1181.1 0.0 0 0 47874 44094.5 " />
<path d="M47874 21850.4 A1181.1 1181.1 0.0 0 0 46692.9 23031.5 " />
<path d="M72283.5 23031.5 A1181.1 1181.1 0.0 0 0 71102.4 21850.4 " />
<path d="M46692 36811
L46692 42913
" />
<path d="M46692 23031
L46692 29330
" />
<path d="M47086 36417
L48267 36417
" />
<path d="M47086 29724
L48267 29724
" />
<path d="M48661 30118
L48661 36023
" />
<path d="M47874 44094
L71102 44094
" />
<path d="M72283 23031
L72283 42913
" />
<path d="M47874 21850
L71102 21850
" />
</g>
<g style="fill:#000000; fill-opacity:1.0; 
stroke:#000000; stroke-width:0; stroke-opacity:1; 
stroke-linecap:round; stroke-linejoin:round;">
<circle cx="61342.5" cy="26397.6" r="354.331" /> 
</g>
<g style="fill:#000000; fill-opacity:1.0; 
stroke:#000000; stroke-width:39.3701; stroke-opacity:1; 
stroke-linecap:round; stroke-linejoin:round;">
</g>
<g style="fill:#000000; fill-opacity:1.0; 
stroke:#000000; stroke-width:0; stroke-opacity:1; 
stroke-linecap:round; stroke-linejoin:round;">
<circle cx="60342.5" cy="26397.6" r="354.331" /> 
</g>
<g style="fill:#000000; fill-opacity:1.0; 
stroke:#000000; stroke-width:39.3701; stroke-opacity:1; 
stroke-linecap:round; stroke-linejoin:round;">
</g>
<g style="fill:#000000; fill-opacity:1.0; 
stroke:#000000; stroke-width:0; stroke-opacity:1; 
stroke-linecap:round; stroke-linejoin:round;">
<circle cx="59342.5" cy="26397.6" r="354.331" /> 
</g>
<g style="fill:#000000; fill-opacity:1.0; 
stroke:#000000; stroke-width:39.3701; stroke-opacity:1; 
stroke-linecap:round; stroke-linejoin:round;">
</g>
<g style="fill:#000000; fill-opacity:1.0; 
stroke:#000000; stroke-width:0; stroke-opacity:1; 
stroke-linecap:round; stroke-linejoin:round;">
<circle cx="58342.5" cy="26397.6" r="354.331" /> 
</g>
<g style="fill:#000000; fill-opacity:1.0; 
stroke:#000000; stroke-width:39.3701; stroke-opacity:1; 
stroke-linecap:round; stroke-linejoin:round;">
</g>
<g style="fill:#000000; fill-opacity:1.0; 
stroke:#000000; stroke-width:0; stroke-opacity:1; 
stroke-linecap:round; stroke-linejoin:round;">
<circle cx="61342.5" cy="42342.5" r="354.331" /> 
</g>
<g style="fill:#000000; fill-opacity:1.0; 
stroke:#000000; stroke-width:39.3701; stroke-opacity:1; 
stroke-linecap:round; stroke-linejoin:round;">
</g>
<g style="fill:#000000; fill-opacity:1.0; 
stroke:#000000; stroke-width:0; stroke-opacity:1; 
stroke-linecap:round; stroke-linejoin:round;">
<circle cx="60342.5" cy="42342.5" r="354.331" /> 
</g>
<g style="fill:#000000; fill-opacity:1.0; 
stroke:#000000; stroke-width:39.3701; stroke-opacity:1; 
stroke-linecap:round; stroke-linejoin:round;">
</g>
<g style="fill:#000000; fill-opacity:1.0; 
stroke:#000000; stroke-width:0; stroke-opacity:1; 
stroke-linecap:round; stroke-linejoin:round;">
<circle cx="59342.5" cy="42342.5" r="354.331" /> 
</g>
<g style="fill:#000000; fill-opacity:1.0; 
stroke:#000000; stroke-width:39.3701; stroke-opacity:1; 
stroke-linecap:round; stroke-linejoin:round;">
</g>
<g style="fill:#000000; fill-opacity:1.0; 
stroke:#000000; stroke-width:0; stroke-opacity:1; 
stroke-linecap:round; stroke-linejoin:round;">
<circle cx="58342.5" cy="42342.5" r="354.331" /> 
</g>
<g style="fill:#000000; fill-opacity:1.0; 
stroke:#000000; stroke-width:39.3701; stroke-opacity:1; 
stroke-linecap:round; stroke-linejoin:round;">
</g>
<g style="fill:#000000; fill-opacity:1.0; 
stroke:#000000; stroke-width:0; stroke-opacity:1; 
stroke-linecap:round; stroke-linejoin:round;">
<circle cx="52043.3" cy="31496.1" r="334.646" /> 
</g>
<g style="fill:#000000; fill-opacity:1.0; 
stroke:#000000; stroke-width:39.3701; stroke-opacity:1; 
stroke-linecap:round; stroke-linejoin:round;">
</g>
<g style="fill:#000000; fill-opacity:1.0; 
stroke:#000000; stroke-width:0; stroke-opacity:1; 
stroke-linecap:round; stroke-linejoin:round;">
<circle cx="53043.3" cy="31496.1" r="334.646" /> 
</g>
<g style="fill:#000000; fill-opacity:1.0; 
stroke:#000000; stroke-width:39.3701; stroke-opacity:1; 
stroke-linecap:round; stroke-linejoin:round;">
</g>
<g style="fill:#000000; fill-opacity:1.0; 
stroke:#000000; stroke-width:0; stroke-opacity:1; 
stroke-linecap:round; stroke-linejoin:round;">
<circle cx="54043.3" cy="31496.1" r="334.646" /> 
</g>
<g style="fill:#000000; fill-opacity:1.0; 
stroke:#000000; stroke-width:39.3701; stroke-opacity:1; 
stroke-linecap:round; stroke-linejoin:round;">
</g>
<g style="fill:#000000; fill-opacity:1.0; 
stroke:#000000; stroke-width:0; stroke-opacity:1; 
stroke-linecap:round; stroke-linejoin:round;">
<circle cx="55043.3" cy="31496.1" r="334.646" /> 
</g>
<g style="fill:#000000; fill-opacity:1.0; 
stroke:#000000; stroke-width:39.3701; stroke-opacity:1; 
stroke-linecap:round; stroke-linejoin:round;">
</g>
<g style="fill:#000000; fill-opacity:1.0; 
stroke:#000000; stroke-width:0; stroke-opacity:1; 
stroke-linecap:round; stroke-linejoin:round;">
<circle cx="55043.3" cy="26378" r="334.646" /> 
</g>
<g style="fill:#000000; fill-opacity:1.0; 
stroke:#000000; stroke-width:39.3701; stroke-opacity:1; 
stroke-linecap:round; stroke-linejoin:round;">
</g>
<g style="fill:#000000; fill-opacity:1.0; 
stroke:#000000; stroke-width:0; stroke-opacity:1; 
stroke-linecap:round; stroke-linejoin:round;">
<circle cx="54043.3" cy="26378" r="334.646" /> 
</g>
<g style="fill:#000000; fill-opacity:1.0; 
stroke:#000000; stroke-width:39.3701; stroke-opacity:1; 
stroke-linecap:round; stroke-linejoin:round;">
</g>
<g style="fill:#000000; fill-opacity:1.0; 
stroke:#000000; stroke-width:0; stroke-opacity:1; 
stroke-linecap:round; stroke-linejoin:round;">
<circle cx="53043.3" cy="26378" r="334.646" /> 
</g>
<g style="fill:#000000; fill-opacity:1.0; 
stroke:#000000; stroke-width:39.3701; stroke-opacity:1; 
stroke-linecap:round; stroke-linejoin:round;">
</g>
<g style="fill:#000000; fill-opacity:1.0; 
stroke:#000000; stroke-width:0; stroke-opacity:1; 
stroke-linecap:round; stroke-linejoin:round;">
<circle cx="52043.3" cy="26378" r="334.646" /> 
</g>
<g style="fill:#000000; fill-opacity:1.0; 
stroke:#000000; stroke-width:39.3701; stroke-opacity:1; 
stroke-linecap:round; stroke-linejoin:round;">
</g>
<g style="fill:#000000; fill-opacity:1.0; 
stroke:#000000; stroke-width:0; stroke-opacity:1; 
stroke-linecap:round; stroke-linejoin:round;">
<polyline style="fill-rule:evenodd;"
points="50328,24265
49648,24265
49648,23585
50328,23585
50328,24265
" /> 
</g>
<g style="fill:#000000; fill-opacity:1.0; 
stroke:#000000; stroke-width:680; stroke-opacity:1; 
stroke-linecap:round; stroke-linejoin:round;">
</g>
<g style="fill:#000000; fill-opacity:0.0; 
stroke:#000000; stroke-width:680; stroke-opacity:1; 
stroke-linecap:round; stroke-linejoin:round;">
<path d="M49988 22925
L49988 22925
" />
<path d="M50988 23925
L50988 23925
" />
<path d="M50988 22925
L50988 22925
" />
<path d="M51988 23925
L51988 23925
" />
<path d="M51988 22925
L51988 22925
" />
<path d="M52988 23925
L52988 23925
" />
<path d="M52988 22925
L52988 22925
" />
<path d="M53988 23925
L53988 23925
" />
<path d="M53988 22925
L53988 22925
" />
<path d="M54988 23925
L54988 23925
" />
<path d="M54988 22925
L54988 22925
" />
<path d="M55988 23925
L55988 23925
" />
<path d="M55988 22925
L55988 22925
" />
<path d="M56988 23925
L56988 23925
" />
<path d="M56988 22925
L56988 22925
" />
<path d="M57988 23925
L57988 23925
" />
<path d="M57988 22925
L57988 22925
" />
<path d="M58988 23925
L58988 23925
" />
<path d="M58988 22925
L58988 22925
" />
<path d="M59988 23925
L59988 23925
" />
<path d="M59988 22925
L59988 22925
" />
<path d="M60988 23925
L60988 23925
" />
<path d="M60988 22925
L60988 22925
" />
<path d="M61988 23925
L61988 23925
" />
<path d="M61988 22925
L61988 22925
" />
<path d="M62988 23925
L62988 23925
" />
<path d="M62988 22925
L62988 22925
" />
<path d="M63988 23925
L63988 23925
" />
<path d="M63988 22925
L63988 22925
" />
<path d="M64988 23925
L64988 23925
" />
<path d="M64988 22925
L64988 22925
" />
<path d="M65988 23925
L65988 23925
" />
<path d="M65988 22925
L65988 22925
" />
<path d="M66988 23925
L66988 23925
" />
<path d="M66988 22925
L66988 22925
" />
<path d="M67988 23925
L67988 23925
" />
<path d="M67988 22925
L67988 22925
" />
<path d="M68988 23925
L68988 23925
" />
<path d="M68988 22925
L68988 22925
" />
</g>
<g style="fill:#000000; fill-opacity:0.0; 
stroke:#000000; stroke-width:0; stroke-opacity:1; 
stroke-linecap:round; stroke-linejoin:round;">
</g>
<g style="fill:#000000; fill-opacity:1.0; 
stroke:#000000; stroke-width:0; stroke-opacity:1; 
stroke-linecap:round; stroke-linejoin:round;">
<polyline style="fill-rule:evenodd;"
points="50177,39192
50177,37814
51555,37814
51555,39192
50177,39192
" /> 
<polyline style="fill-rule:evenodd;"
points="47815,39192
47815,37814
49193,37814
49193,39192
47815,39192
" /> 
<polyline style="fill-rule:evenodd;"
points="48996,41042
48996,39664
50374,39664
50374,41042
48996,41042
" /> 
<circle cx="65035.4" cy="31496.1" r="334.646" /> 
</g>
<g style="fill:#000000; fill-opacity:1.0; 
stroke:#000000; stroke-width:39.3701; stroke-opacity:1; 
stroke-linecap:round; stroke-linejoin:round;">
</g>
<g style="fill:#000000; fill-opacity:1.0; 
stroke:#000000; stroke-width:0; stroke-opacity:1; 
stroke-linecap:round; stroke-linejoin:round;">
<circle cx="66035.4" cy="31496.1" r="334.646" /> 
</g>
<g style="fill:#000000; fill-opacity:1.0; 
stroke:#000000; stroke-width:39.3701; stroke-opacity:1; 
stroke-linecap:round; stroke-linejoin:round;">
</g>
<g style="fill:#000000; fill-opacity:1.0; 
stroke:#000000; stroke-width:0; stroke-opacity:1; 
stroke-linecap:round; stroke-linejoin:round;">
<circle cx="67035.4" cy="31496.1" r="334.646" /> 
</g>
<g style="fill:#000000; fill-opacity:1.0; 
stroke:#000000; stroke-width:39.3701; stroke-opacity:1; 
stroke-linecap:round; stroke-linejoin:round;">
</g>
<g style="fill:#000000; fill-opacity:1.0; 
stroke:#000000; stroke-width:0; stroke-opacity:1; 
stroke-linecap:round; stroke-linejoin:round;">
<circle cx="68035.4" cy="31496.1" r="334.646" /> 
</g>
<g style="fill:#000000; fill-opacity:1.0; 
stroke:#000000; stroke-width:39.3701; stroke-opacity:1; 
stroke-linecap:round; stroke-linejoin:round;">
</g>
<g style="fill:#000000; fill-opacity:1.0; 
stroke:#000000; stroke-width:0; stroke-opacity:1; 
stroke-linecap:round; stroke-linejoin:round;">
<circle cx="68035.4" cy="26378" r="334.646" /> 
</g>
<g style="fill:#000000; fill-opacity:1.0; 
stroke:#000000; stroke-width:39.3701; stroke-opacity:1; 
stroke-linecap:round; stroke-linejoin:round;">
</g>
<g style="fill:#000000; fill-opacity:1.0; 
stroke:#000000; stroke-width:0; stroke-opacity:1; 
stroke-linecap:round; stroke-linejoin:round;">
<circle cx="67035.4" cy="26378" r="334.646" /> 
</g>
<g style="fill:#000000; fill-opacity:1.0; 
stroke:#000000; stroke-width:39.3701; stroke-opacity:1; 
stroke-linecap:round; stroke-linejoin:round;">
</g>
<g style="fill:#000000; fill-opacity:1.0; 
stroke:#000000; stroke-width:0; stroke-opacity:1; 
stroke-linecap:round; stroke-linejoin:round;">
<circle cx="66035.4" cy="26378" r="334.646" /> 
</g>
<g style="fill:#000000; fill-opacity:1.0; 
stroke:#000000; stroke-width:39.3701; stroke-opacity:1; 
stroke-linecap:round; stroke-linejoin:round;">
</g>
<g style="fill:#000000; fill-opacity:1.0; 
stroke:#000000; stroke-width:0; stroke-opacity:1; 
stroke-linecap:round; stroke-linejoin:round;">
<circle cx="65035.4" cy="26378" r="334.646" /> 
</g>
<g style="fill:#000000; fill-opacity:1.0; 
stroke:#000000; stroke-width:39.3701; stroke-opacity:1; 
stroke-linecap:round; stroke-linejoin:round;">
</g>
<g style="fill:#000000; fill-opacity:1.0; 
stroke:#000000; stroke-width:0; stroke-opacity:1; 
stroke-linecap:round; stroke-linejoin:round;">
<circle cx="50984.3" cy="24980.3" r="334.646" /> 
</g>
<g style="fill:#000000; fill-opacity:1.0; 
stroke:#000000; stroke-width:39.3701; stroke-opacity:1; 
stroke-linecap:round; stroke-linejoin:round;">
</g>
<g style="fill:#000000; fill-opacity:1.0; 
stroke:#000000; stroke-width:0; stroke-opacity:1; 
stroke-linecap:round; stroke-linejoin:round;">
<circle cx="68051.2" cy="33070.9" r="334.646" /> 
</g>
<g style="fill:#000000; fill-opacity:1.0; 
stroke:#000000; stroke-width:39.3701; stroke-opacity:1; 
stroke-linecap:round; stroke-linejoin:round;">
</g>
<g style="fill:#000000; fill-opacity:1.0; 
stroke:#000000; stroke-width:0; stroke-opacity:1; 
stroke-linecap:round; stroke-linejoin:round;">
<circle cx="55059.1" cy="33110.2" r="334.646" /> 
</g>
<g style="fill:#000000; fill-opacity:1.0; 
stroke:#000000; stroke-width:39.3701; stroke-opacity:1; 
stroke-linecap:round; stroke-linejoin:round;">
</g>
<g style="fill:#000000; fill-opacity:1.0; 
stroke:#000000; stroke-width:0; stroke-opacity:1; 
stroke-linecap:round; stroke-linejoin:round;">
<circle cx="49763.8" cy="31496.1" r="334.646" /> 
</g>
<g style="fill:#000000; fill-opacity:1.0; 
stroke:#000000; stroke-width:39.3701; stroke-opacity:1; 
stroke-linecap:round; stroke-linejoin:round;">
</g>
<g style="fill:#000000; fill-opacity:1.0; 
stroke:#000000; stroke-width:0; stroke-opacity:1; 
stroke-linecap:round; stroke-linejoin:round;">
<circle cx="50787.4" cy="31496.1" r="334.646" /> 
</g>
<g style="fill:#000000; fill-opacity:1.0; 
stroke:#000000; stroke-width:39.3701; stroke-opacity:1; 
stroke-linecap:round; stroke-linejoin:round;">
</g>
<g style="fill:#000000; fill-opacity:1.0; 
stroke:#000000; stroke-width:0; stroke-opacity:1; 
stroke-linecap:round; stroke-linejoin:round;">
<circle cx="50157.5" cy="26378" r="334.646" /> 
</g>
<g style="fill:#000000; fill-opacity:1.0; 
stroke:#000000; stroke-width:39.3701; stroke-opacity:1; 
stroke-linecap:round; stroke-linejoin:round;">
</g>
<g style="fill:#000000; fill-opacity:1.0; 
stroke:#000000; stroke-width:0; stroke-opacity:1; 
stroke-linecap:round; stroke-linejoin:round;">
<circle cx="49724.4" cy="35905.5" r="334.646" /> 
</g>
<g style="fill:#000000; fill-opacity:1.0; 
stroke:#000000; stroke-width:39.3701; stroke-opacity:1; 
stroke-linecap:round; stroke-linejoin:round;">
</g>
<g style="fill:#000000; fill-opacity:1.0; 
stroke:#000000; stroke-width:196.85; stroke-opacity:1; 
stroke-linecap:round; stroke-linejoin:round;">
</g>
<g style="fill:#000000; fill-opacity:0.0; 
stroke:#000000; stroke-width:196.85; stroke-opacity:1; 
stroke-linecap:round; stroke-linejoin:round;">
<path d="M69862 23346
L69440 22925
" />
<path d="M69440 22925
L68988 22925
" />
<path d="M69862 30000
L69862 23346
" />
<path d="M69133 30728
L69862 30000
" />
<path d="M66496 30728
L69133 30728
" />
<path d="M66035 31188
L66496 30728
" />
<path d="M66035 31496
L66035 31188
" />
<path d="M68011 33110
L68051 33070
" />
<path d="M55043 31496
L55043 33094
" />
<path d="M68035 31496
L68035 33055
" />
<path d="M49988 23925
L49988 24791
" />
<path d="M49988 24791
L50177 24980
" />
<path d="M50177 24980
L50944 24980
" />
</g>
<g style="fill:#000000; fill-opacity:0.0; 
stroke:#000000; stroke-width:590.551; stroke-opacity:1; 
stroke-linecap:round; stroke-linejoin:round;">
<path d="M50866 38503
L57500 38503
" />
<path d="M57500 38503
L60078 38503
" />
</g>
<g style="fill:#000000; fill-opacity:0.0; 
stroke:#000000; stroke-width:196.85; stroke-opacity:1; 
stroke-linecap:round; stroke-linejoin:round;">
<path d="M56515 27834
L57500 28818
" />
<path d="M57500 28818
L57500 38503
" />
<path d="M55708 27834
L56515 27834
" />
<path d="M55043 27169
L55708 27834
" />
<path d="M55043 26377
L55043 27169
" />
<path d="M55043 26377
L55043 27279
" />
<path d="M55043 27279
L54488 27834
" />
<path d="M54488 27834
L50019 27834
" />
<path d="M50019 27834
L49330 27145
" />
<path d="M49330 27145
L49330 25669
" />
<path d="M49330 23267
L49330 25669
" />
<path d="M49370 25708
L49330 25669
" />
<path d="M52027 25708
L49370 25708
" />
<path d="M52952 24783
L52027 25708
" />
<path d="M67578 24783
L52952 24783
" />
<path d="M68035 25240
L67578 24783
" />
<path d="M68035 26377
L68035 25240
" />
<path d="M49673 22925
L49330 23267
" />
<path d="M49988 22925
L49673 22925
" />
</g>
<g style="fill:#000000; fill-opacity:0.0; 
stroke:#000000; stroke-width:590.551; stroke-opacity:1; 
stroke-linecap:round; stroke-linejoin:round;">
<path d="M60078 38503
L61342 39767
" />
<path d="M61342 39767
L61342 42342
" />
</g>
<g style="fill:#000000; fill-opacity:0.0; 
stroke:#000000; stroke-width:196.85; stroke-opacity:1; 
stroke-linecap:round; stroke-linejoin:round;">
<path d="M49606 22342
L49350 22342
" />
<path d="M49350 22342
L48956 22736
" />
<path d="M52559 30452
L53043 30937
" />
<path d="M48956 22736
L48956 28622
" />
<path d="M48956 28622
L50787 30452
" />
<path d="M50787 30452
L52559 30452
" />
<path d="M53043 30937
L53043 31496
" />
</g>
<g style="fill:#000000; fill-opacity:0.0; 
stroke:#000000; stroke-width:157.48; stroke-opacity:1; 
stroke-linecap:round; stroke-linejoin:round;">
<path d="M52988 22925
L52988 22456
" />
<path d="M52988 22456
L52874 22342
" />
<path d="M52874 22342
L49606 22342
" />
<path d="M52988 22925
L52988 22956
" />
</g>
<g style="fill:#000000; fill-opacity:0.0; 
stroke:#000000; stroke-width:196.85; stroke-opacity:1; 
stroke-linecap:round; stroke-linejoin:round;">
<path d="M49232 22007
L47736 22007
" />
<path d="M47736 22007
L46968 22775
" />
<path d="M46968 22775
L46968 28641
" />
<path d="M46968 28641
L47736 29409
" />
<path d="M54043 31940
L54043 31496
" />
<path d="M47736 29409
L48661 29409
" />
<path d="M53799 32185
L54043 31940
" />
<path d="M48661 29409
L48996 29744
" />
<path d="M48996 29744
L48996 31811
" />
<path d="M48996 31811
L49370 32185
" />
<path d="M49370 32185
L53799 32185
" />
</g>
<g style="fill:#000000; fill-opacity:0.0; 
stroke:#000000; stroke-width:157.48; stroke-opacity:1; 
stroke-linecap:round; stroke-linejoin:round;">
<path d="M49232 22007
L53818 22007
" />
<path d="M53988 22177
L53988 22452
" />
<path d="M53988 22452
L53988 22925
" />
<path d="M53818 22007
L53988 22177
" />
</g>
<g style="fill:#000000; fill-opacity:0.0; 
stroke:#000000; stroke-width:196.85; stroke-opacity:1; 
stroke-linecap:round; stroke-linejoin:round;">
<path d="M53988 22925
L53964 22925
" />
</g>
<g style="fill:#000000; fill-opacity:0.0; 
stroke:#000000; stroke-width:393.701; stroke-opacity:1; 
stroke-linecap:round; stroke-linejoin:round;">
<path d="M49763 35866
L49724 35905
" />
<path d="M48504 38011
L49724 36791
" />
<path d="M49724 36791
L49724 35905
" />
<path d="M48504 38503
L48504 38011
" />
<path d="M50157 26377
L52043 26377
" />
<path d="M50787 31496
L52043 31496
" />
<path d="M49763 31496
L50787 31496
" />
</g>
<g style="fill:#000000; fill-opacity:0.0; 
stroke:#000000; stroke-width:590.551; stroke-opacity:1; 
stroke-linecap:round; stroke-linejoin:round;">
<path d="M65035 26377
L65035 28622
" />
<path d="M68267 28622
L65035 28622
" />
<path d="M65035 28622
L65035 31496
" />
<path d="M68988 27901
L68267 28622
" />
<path d="M68988 23925
L68988 27901
" />
<path d="M66181 35039
L65035 33893
" />
<path d="M65035 33893
L65035 31496
" />
<path d="M66181 42480
L66181 35039
" />
<path d="M65236 43425
L66181 42480
" />
<path d="M58937 43425
L65236 43425
" />
<path d="M58342 42830
L58937 43425
" />
<path d="M58342 42342
L58342 42830
" />
<path d="M49685 41220
L50807 42342
" />
<path d="M50807 42342
L58342 42342
" />
<path d="M49685 40353
L49685 41220
" />
<path d="M48504 38503
L48504 39172
" />
<path d="M48504 39172
L49685 40353
" />
</g>
<g style="fill:#000000; fill-opacity:0.0; 
stroke:#000000; stroke-width:196.85; stroke-opacity:1; 
stroke-linecap:round; stroke-linejoin:round;">
<path d="M60984 27204
L61342 26846
" />
<path d="M61342 26846
L61342 26397
" />
<path d="M56417 26062
L56417 26692
" />
<path d="M56417 26692
L56929 27204
" />
<path d="M56082 25728
L56417 26062
" />
<path d="M54271 25728
L56082 25728
" />
<path d="M54043 25956
L54271 25728
" />
<path d="M54043 26377
L54043 25956
" />
<path d="M60984 27204
L56929 27204
" />
<path d="M60748 25295
L65748 25295
" />
<path d="M60342 25700
L60748 25295
" />
<path d="M60342 26397
L60342 25700
" />
<path d="M65748 25295
L66035 25582
" />
<path d="M66035 25582
L66035 26377
" />
<path d="M59342 26397
L60342 26397
" />
<path d="M57992 25275
L58342 25625
" />
<path d="M58342 25625
L58342 26397
" />
<path d="M53464 25275
L57992 25275
" />
<path d="M53043 25696
L53464 25275
" />
<path d="M53043 26377
L53043 25696
" />
</g> 
</svg>
