<?xml version="1.0" standalone="no"?>
 <!DOCTYPE svg PUBLIC "-//W3C//DTD SVG 1.1//EN" 
 "http://www.w3.org/Graphics/SVG/1.1/DTD/svg11.dtd"> 
<svg xmlns="http://www.w3.org/2000/svg" version="1.1" 
    width="29.7002cm" height="21.0007cm" viewBox="0 0 116930 82680 ">
<title>SVG Picture created as RPi_Hat-F.Cu.svg date 2016/02/22 18:13:48 </title>
  <desc>Picture generated by PCBNEW </desc>
<g style="fill:#000000; fill-opacity:1;stroke:#000000; stroke-opacity:1;
stroke-linecap:round; stroke-linejoin:round; "
 transform="translate(0 0) scale(1 1)">
</g>
<g style="fill:#000000; fill-opacity:0.0; 
stroke:#000000; stroke-width:-0.000393701; stroke-opacity:1; 
stroke-linecap:round; stroke-linejoin:round;">
</g>
<g style="fill:#000000; fill-opacity:0.0; 
stroke:#000000; stroke-width:39.3701; stroke-opacity:1; 
stroke-linecap:round; stroke-linejoin:round;">
<path d="M45827.6 22047.2 A1181.1 1181.1 0.0 0 0 44646.5 23228.3 " />
<path d="M52126.9 42519.7 A393.701 393.701 0.0 0 0 52914.3 42519.7 " />
<path d="M52914.3 36614.2 A393.701 393.701 0.0 0 0 52126.9 36614.2 " />
<path d="M52126 36614
L52126 42519
" />
<path d="M52914 36614
L52914 42519
" />
<path d="M70237.1 36811 A393.701 393.701 0.0 0 0 69843.4 36417.3 " />
<path d="M68268.6 36023.6 A393.701 393.701 0.0 0 0 68662.3 36417.3 " />
<path d="M68662.3 29724.4 A393.701 393.701 0.0 0 0 68268.6 30118.1 " />
<path d="M69843.4 29724.4 A393.701 393.701 0.0 0 0 70237.1 29330.7 " />
<path d="M44646.5 42913.4 A1181.1 1181.1 0.0 0 0 45827.6 44094.5 " />
<path d="M69056 44094.5 A1181.1 1181.1 0.0 0 0 70237.1 42913.4 " />
<path d="M70237.1 23031.5 A1181.1 1181.1 0.0 0 0 69056 21850.4 " />
<path d="M45827.6 21850.4 A1181.1 1181.1 0.0 0 0 44646.5 23031.5 " />
<path d="M70237 36811
L70237 42913
" />
<path d="M70237 23031
L70237 29330
" />
<path d="M69843 36417
L68662 36417
" />
<path d="M69843 29724
L68662 29724
" />
<path d="M68268 30118
L68268 36023
" />
<path d="M69055 44094
L45827 44094
" />
<path d="M44646 23031
L44646 42913
" />
<path d="M69055 21850
L45827 21850
" />
</g>
<g style="fill:#000000; fill-opacity:1.0; 
stroke:#000000; stroke-width:0; stroke-opacity:1; 
stroke-linecap:round; stroke-linejoin:round;">
<circle cx="55587.5" cy="26397.6" r="354.331" /> 
</g>
<g style="fill:#000000; fill-opacity:1.0; 
stroke:#000000; stroke-width:39.3701; stroke-opacity:1; 
stroke-linecap:round; stroke-linejoin:round;">
</g>
<g style="fill:#000000; fill-opacity:1.0; 
stroke:#000000; stroke-width:0; stroke-opacity:1; 
stroke-linecap:round; stroke-linejoin:round;">
<circle cx="56587.5" cy="26397.6" r="354.331" /> 
</g>
<g style="fill:#000000; fill-opacity:1.0; 
stroke:#000000; stroke-width:39.3701; stroke-opacity:1; 
stroke-linecap:round; stroke-linejoin:round;">
</g>
<g style="fill:#000000; fill-opacity:1.0; 
stroke:#000000; stroke-width:0; stroke-opacity:1; 
stroke-linecap:round; stroke-linejoin:round;">
<circle cx="57587.5" cy="26397.6" r="354.331" /> 
</g>
<g style="fill:#000000; fill-opacity:1.0; 
stroke:#000000; stroke-width:39.3701; stroke-opacity:1; 
stroke-linecap:round; stroke-linejoin:round;">
</g>
<g style="fill:#000000; fill-opacity:1.0; 
stroke:#000000; stroke-width:0; stroke-opacity:1; 
stroke-linecap:round; stroke-linejoin:round;">
<circle cx="58587.5" cy="26397.6" r="354.331" /> 
</g>
<g style="fill:#000000; fill-opacity:1.0; 
stroke:#000000; stroke-width:39.3701; stroke-opacity:1; 
stroke-linecap:round; stroke-linejoin:round;">
</g>
<g style="fill:#000000; fill-opacity:1.0; 
stroke:#000000; stroke-width:0; stroke-opacity:1; 
stroke-linecap:round; stroke-linejoin:round;">
<circle cx="55587.5" cy="42342.5" r="354.331" /> 
</g>
<g style="fill:#000000; fill-opacity:1.0; 
stroke:#000000; stroke-width:39.3701; stroke-opacity:1; 
stroke-linecap:round; stroke-linejoin:round;">
</g>
<g style="fill:#000000; fill-opacity:1.0; 
stroke:#000000; stroke-width:0; stroke-opacity:1; 
stroke-linecap:round; stroke-linejoin:round;">
<circle cx="56587.5" cy="42342.5" r="354.331" /> 
</g>
<g style="fill:#000000; fill-opacity:1.0; 
stroke:#000000; stroke-width:39.3701; stroke-opacity:1; 
stroke-linecap:round; stroke-linejoin:round;">
</g>
<g style="fill:#000000; fill-opacity:1.0; 
stroke:#000000; stroke-width:0; stroke-opacity:1; 
stroke-linecap:round; stroke-linejoin:round;">
<circle cx="57587.5" cy="42342.5" r="354.331" /> 
</g>
<g style="fill:#000000; fill-opacity:1.0; 
stroke:#000000; stroke-width:39.3701; stroke-opacity:1; 
stroke-linecap:round; stroke-linejoin:round;">
</g>
<g style="fill:#000000; fill-opacity:1.0; 
stroke:#000000; stroke-width:0; stroke-opacity:1; 
stroke-linecap:round; stroke-linejoin:round;">
<circle cx="58587.5" cy="42342.5" r="354.331" /> 
</g>
<g style="fill:#000000; fill-opacity:1.0; 
stroke:#000000; stroke-width:39.3701; stroke-opacity:1; 
stroke-linecap:round; stroke-linejoin:round;">
</g>
<g style="fill:#000000; fill-opacity:1.0; 
stroke:#000000; stroke-width:0; stroke-opacity:1; 
stroke-linecap:round; stroke-linejoin:round;">
<circle cx="64886.7" cy="31496.1" r="334.646" /> 
</g>
<g style="fill:#000000; fill-opacity:1.0; 
stroke:#000000; stroke-width:39.3701; stroke-opacity:1; 
stroke-linecap:round; stroke-linejoin:round;">
</g>
<g style="fill:#000000; fill-opacity:1.0; 
stroke:#000000; stroke-width:0; stroke-opacity:1; 
stroke-linecap:round; stroke-linejoin:round;">
<circle cx="63886.7" cy="31496.1" r="334.646" /> 
</g>
<g style="fill:#000000; fill-opacity:1.0; 
stroke:#000000; stroke-width:39.3701; stroke-opacity:1; 
stroke-linecap:round; stroke-linejoin:round;">
</g>
<g style="fill:#000000; fill-opacity:1.0; 
stroke:#000000; stroke-width:0; stroke-opacity:1; 
stroke-linecap:round; stroke-linejoin:round;">
<circle cx="62886.7" cy="31496.1" r="334.646" /> 
</g>
<g style="fill:#000000; fill-opacity:1.0; 
stroke:#000000; stroke-width:39.3701; stroke-opacity:1; 
stroke-linecap:round; stroke-linejoin:round;">
</g>
<g style="fill:#000000; fill-opacity:1.0; 
stroke:#000000; stroke-width:0; stroke-opacity:1; 
stroke-linecap:round; stroke-linejoin:round;">
<circle cx="61886.7" cy="31496.1" r="334.646" /> 
</g>
<g style="fill:#000000; fill-opacity:1.0; 
stroke:#000000; stroke-width:39.3701; stroke-opacity:1; 
stroke-linecap:round; stroke-linejoin:round;">
</g>
<g style="fill:#000000; fill-opacity:1.0; 
stroke:#000000; stroke-width:0; stroke-opacity:1; 
stroke-linecap:round; stroke-linejoin:round;">
<circle cx="61886.7" cy="26378" r="334.646" /> 
</g>
<g style="fill:#000000; fill-opacity:1.0; 
stroke:#000000; stroke-width:39.3701; stroke-opacity:1; 
stroke-linecap:round; stroke-linejoin:round;">
</g>
<g style="fill:#000000; fill-opacity:1.0; 
stroke:#000000; stroke-width:0; stroke-opacity:1; 
stroke-linecap:round; stroke-linejoin:round;">
<circle cx="62886.7" cy="26378" r="334.646" /> 
</g>
<g style="fill:#000000; fill-opacity:1.0; 
stroke:#000000; stroke-width:39.3701; stroke-opacity:1; 
stroke-linecap:round; stroke-linejoin:round;">
</g>
<g style="fill:#000000; fill-opacity:1.0; 
stroke:#000000; stroke-width:0; stroke-opacity:1; 
stroke-linecap:round; stroke-linejoin:round;">
<circle cx="63886.7" cy="26378" r="334.646" /> 
</g>
<g style="fill:#000000; fill-opacity:1.0; 
stroke:#000000; stroke-width:39.3701; stroke-opacity:1; 
stroke-linecap:round; stroke-linejoin:round;">
</g>
<g style="fill:#000000; fill-opacity:1.0; 
stroke:#000000; stroke-width:0; stroke-opacity:1; 
stroke-linecap:round; stroke-linejoin:round;">
<circle cx="64886.7" cy="26378" r="334.646" /> 
</g>
<g style="fill:#000000; fill-opacity:1.0; 
stroke:#000000; stroke-width:39.3701; stroke-opacity:1; 
stroke-linecap:round; stroke-linejoin:round;">
</g>
<g style="fill:#000000; fill-opacity:1.0; 
stroke:#000000; stroke-width:0; stroke-opacity:1; 
stroke-linecap:round; stroke-linejoin:round;">
<polyline style="fill-rule:evenodd;"
points="66601,24265
67281,24265
67281,23585
66601,23585
66601,24265
" /> 
</g>
<g style="fill:#000000; fill-opacity:1.0; 
stroke:#000000; stroke-width:680; stroke-opacity:1; 
stroke-linecap:round; stroke-linejoin:round;">
</g>
<g style="fill:#000000; fill-opacity:0.0; 
stroke:#000000; stroke-width:680; stroke-opacity:1; 
stroke-linecap:round; stroke-linejoin:round;">
<path d="M66941 22925
L66941 22925
" />
<path d="M65941 23925
L65941 23925
" />
<path d="M65941 22925
L65941 22925
" />
<path d="M64941 23925
L64941 23925
" />
<path d="M64941 22925
L64941 22925
" />
<path d="M63941 23925
L63941 23925
" />
<path d="M63941 22925
L63941 22925
" />
<path d="M62941 23925
L62941 23925
" />
<path d="M62941 22925
L62941 22925
" />
<path d="M61941 23925
L61941 23925
" />
<path d="M61941 22925
L61941 22925
" />
<path d="M60941 23925
L60941 23925
" />
<path d="M60941 22925
L60941 22925
" />
<path d="M59941 23925
L59941 23925
" />
<path d="M59941 22925
L59941 22925
" />
<path d="M58941 23925
L58941 23925
" />
<path d="M58941 22925
L58941 22925
" />
<path d="M57941 23925
L57941 23925
" />
<path d="M57941 22925
L57941 22925
" />
<path d="M56941 23925
L56941 23925
" />
<path d="M56941 22925
L56941 22925
" />
<path d="M55941 23925
L55941 23925
" />
<path d="M55941 22925
L55941 22925
" />
<path d="M54941 23925
L54941 23925
" />
<path d="M54941 22925
L54941 22925
" />
<path d="M53941 23925
L53941 23925
" />
<path d="M53941 22925
L53941 22925
" />
<path d="M52941 23925
L52941 23925
" />
<path d="M52941 22925
L52941 22925
" />
<path d="M51941 23925
L51941 23925
" />
<path d="M51941 22925
L51941 22925
" />
<path d="M50941 23925
L50941 23925
" />
<path d="M50941 22925
L50941 22925
" />
<path d="M49941 23925
L49941 23925
" />
<path d="M49941 22925
L49941 22925
" />
<path d="M48941 23925
L48941 23925
" />
<path d="M48941 22925
L48941 22925
" />
<path d="M47941 23925
L47941 23925
" />
<path d="M47941 22925
L47941 22925
" />
</g>
<g style="fill:#000000; fill-opacity:0.0; 
stroke:#000000; stroke-width:0; stroke-opacity:1; 
stroke-linecap:round; stroke-linejoin:round;">
</g>
<g style="fill:#000000; fill-opacity:1.0; 
stroke:#000000; stroke-width:0; stroke-opacity:1; 
stroke-linecap:round; stroke-linejoin:round;">
<polyline style="fill-rule:evenodd;"
points="66752,39192
66752,37814
65374,37814
65374,39192
66752,39192
" /> 
<polyline style="fill-rule:evenodd;"
points="69114,39192
69114,37814
67736,37814
67736,39192
69114,39192
" /> 
<polyline style="fill-rule:evenodd;"
points="67933,41042
67933,39664
66555,39664
66555,41042
67933,41042
" /> 
<circle cx="51894.6" cy="31496.1" r="334.646" /> 
</g>
<g style="fill:#000000; fill-opacity:1.0; 
stroke:#000000; stroke-width:39.3701; stroke-opacity:1; 
stroke-linecap:round; stroke-linejoin:round;">
</g>
<g style="fill:#000000; fill-opacity:1.0; 
stroke:#000000; stroke-width:0; stroke-opacity:1; 
stroke-linecap:round; stroke-linejoin:round;">
<circle cx="50894.6" cy="31496.1" r="334.646" /> 
</g>
<g style="fill:#000000; fill-opacity:1.0; 
stroke:#000000; stroke-width:39.3701; stroke-opacity:1; 
stroke-linecap:round; stroke-linejoin:round;">
</g>
<g style="fill:#000000; fill-opacity:1.0; 
stroke:#000000; stroke-width:0; stroke-opacity:1; 
stroke-linecap:round; stroke-linejoin:round;">
<circle cx="49894.6" cy="31496.1" r="334.646" /> 
</g>
<g style="fill:#000000; fill-opacity:1.0; 
stroke:#000000; stroke-width:39.3701; stroke-opacity:1; 
stroke-linecap:round; stroke-linejoin:round;">
</g>
<g style="fill:#000000; fill-opacity:1.0; 
stroke:#000000; stroke-width:0; stroke-opacity:1; 
stroke-linecap:round; stroke-linejoin:round;">
<circle cx="48894.6" cy="31496.1" r="334.646" /> 
</g>
<g style="fill:#000000; fill-opacity:1.0; 
stroke:#000000; stroke-width:39.3701; stroke-opacity:1; 
stroke-linecap:round; stroke-linejoin:round;">
</g>
<g style="fill:#000000; fill-opacity:1.0; 
stroke:#000000; stroke-width:0; stroke-opacity:1; 
stroke-linecap:round; stroke-linejoin:round;">
<circle cx="48894.6" cy="26378" r="334.646" /> 
</g>
<g style="fill:#000000; fill-opacity:1.0; 
stroke:#000000; stroke-width:39.3701; stroke-opacity:1; 
stroke-linecap:round; stroke-linejoin:round;">
</g>
<g style="fill:#000000; fill-opacity:1.0; 
stroke:#000000; stroke-width:0; stroke-opacity:1; 
stroke-linecap:round; stroke-linejoin:round;">
<circle cx="49894.6" cy="26378" r="334.646" /> 
</g>
<g style="fill:#000000; fill-opacity:1.0; 
stroke:#000000; stroke-width:39.3701; stroke-opacity:1; 
stroke-linecap:round; stroke-linejoin:round;">
</g>
<g style="fill:#000000; fill-opacity:1.0; 
stroke:#000000; stroke-width:0; stroke-opacity:1; 
stroke-linecap:round; stroke-linejoin:round;">
<circle cx="50894.6" cy="26378" r="334.646" /> 
</g>
<g style="fill:#000000; fill-opacity:1.0; 
stroke:#000000; stroke-width:39.3701; stroke-opacity:1; 
stroke-linecap:round; stroke-linejoin:round;">
</g>
<g style="fill:#000000; fill-opacity:1.0; 
stroke:#000000; stroke-width:0; stroke-opacity:1; 
stroke-linecap:round; stroke-linejoin:round;">
<circle cx="51894.6" cy="26378" r="334.646" /> 
</g>
<g style="fill:#000000; fill-opacity:1.0; 
stroke:#000000; stroke-width:39.3701; stroke-opacity:1; 
stroke-linecap:round; stroke-linejoin:round;">
</g>
<g style="fill:#000000; fill-opacity:1.0; 
stroke:#000000; stroke-width:0; stroke-opacity:1; 
stroke-linecap:round; stroke-linejoin:round;">
<circle cx="65945.7" cy="24980.3" r="334.646" /> 
</g>
<g style="fill:#000000; fill-opacity:1.0; 
stroke:#000000; stroke-width:39.3701; stroke-opacity:1; 
stroke-linecap:round; stroke-linejoin:round;">
</g>
<g style="fill:#000000; fill-opacity:1.0; 
stroke:#000000; stroke-width:0; stroke-opacity:1; 
stroke-linecap:round; stroke-linejoin:round;">
<circle cx="48878.8" cy="33070.9" r="334.646" /> 
</g>
<g style="fill:#000000; fill-opacity:1.0; 
stroke:#000000; stroke-width:39.3701; stroke-opacity:1; 
stroke-linecap:round; stroke-linejoin:round;">
</g>
<g style="fill:#000000; fill-opacity:1.0; 
stroke:#000000; stroke-width:0; stroke-opacity:1; 
stroke-linecap:round; stroke-linejoin:round;">
<circle cx="61870.9" cy="33110.2" r="334.646" /> 
</g>
<g style="fill:#000000; fill-opacity:1.0; 
stroke:#000000; stroke-width:39.3701; stroke-opacity:1; 
stroke-linecap:round; stroke-linejoin:round;">
</g>
<g style="fill:#000000; fill-opacity:1.0; 
stroke:#000000; stroke-width:0; stroke-opacity:1; 
stroke-linecap:round; stroke-linejoin:round;">
<circle cx="67166.2" cy="31496.1" r="334.646" /> 
</g>
<g style="fill:#000000; fill-opacity:1.0; 
stroke:#000000; stroke-width:39.3701; stroke-opacity:1; 
stroke-linecap:round; stroke-linejoin:round;">
</g>
<g style="fill:#000000; fill-opacity:1.0; 
stroke:#000000; stroke-width:0; stroke-opacity:1; 
stroke-linecap:round; stroke-linejoin:round;">
<circle cx="66142.6" cy="31496.1" r="334.646" /> 
</g>
<g style="fill:#000000; fill-opacity:1.0; 
stroke:#000000; stroke-width:39.3701; stroke-opacity:1; 
stroke-linecap:round; stroke-linejoin:round;">
</g>
<g style="fill:#000000; fill-opacity:1.0; 
stroke:#000000; stroke-width:0; stroke-opacity:1; 
stroke-linecap:round; stroke-linejoin:round;">
<circle cx="66772.5" cy="26378" r="334.646" /> 
</g>
<g style="fill:#000000; fill-opacity:1.0; 
stroke:#000000; stroke-width:39.3701; stroke-opacity:1; 
stroke-linecap:round; stroke-linejoin:round;">
</g>
<g style="fill:#000000; fill-opacity:1.0; 
stroke:#000000; stroke-width:0; stroke-opacity:1; 
stroke-linecap:round; stroke-linejoin:round;">
<circle cx="67205.6" cy="35905.5" r="334.646" /> 
</g>
<g style="fill:#000000; fill-opacity:1.0; 
stroke:#000000; stroke-width:39.3701; stroke-opacity:1; 
stroke-linecap:round; stroke-linejoin:round;">
</g>
<g style="fill:#000000; fill-opacity:1.0; 
stroke:#000000; stroke-width:196.85; stroke-opacity:1; 
stroke-linecap:round; stroke-linejoin:round;">
</g>
<g style="fill:#000000; fill-opacity:0.0; 
stroke:#000000; stroke-width:196.85; stroke-opacity:1; 
stroke-linecap:round; stroke-linejoin:round;">
<path d="M47067 23346
L47489 22925
" />
<path d="M47489 22925
L47941 22925
" />
<path d="M47067 30000
L47067 23346
" />
<path d="M47796 30728
L47067 30000
" />
<path d="M50433 30728
L47796 30728
" />
<path d="M50894 31188
L50433 30728
" />
<path d="M50894 31496
L50894 31188
" />
<path d="M61886 31496
L61886 33094
" />
<path d="M61886 33094
L61870 33110
" />
<path d="M48894 31496
L48894 33055
" />
<path d="M48894 33055
L48878 33070
" />
<path d="M66941 23925
L66941 24791
" />
<path d="M66941 24791
L66752 24980
" />
<path d="M66752 24980
L65985 24980
" />
</g>
<g style="fill:#000000; fill-opacity:0.0; 
stroke:#000000; stroke-width:590.551; stroke-opacity:1; 
stroke-linecap:round; stroke-linejoin:round;">
<path d="M66063 38503
L59430 38503
" />
<path d="M59430 38503
L56851 38503
" />
</g>
<g style="fill:#000000; fill-opacity:0.0; 
stroke:#000000; stroke-width:196.85; stroke-opacity:1; 
stroke-linecap:round; stroke-linejoin:round;">
<path d="M60414 27834
L59430 28818
" />
<path d="M59430 28818
L59430 38503
" />
<path d="M61221 27834
L60414 27834
" />
<path d="M61886 27169
L61221 27834
" />
<path d="M61886 26377
L61886 27169
" />
<path d="M61886 26377
L61886 27279
" />
<path d="M61886 27279
L62441 27834
" />
<path d="M62441 27834
L66910 27834
" />
<path d="M66910 27834
L67599 27145
" />
<path d="M67599 27145
L67599 25669
" />
<path d="M67599 23267
L67599 25669
" />
<path d="M67559 25708
L67599 25669
" />
<path d="M64902 25708
L67559 25708
" />
<path d="M63977 24783
L64902 25708
" />
<path d="M49351 24783
L63977 24783
" />
<path d="M48894 25240
L49351 24783
" />
<path d="M48894 26377
L48894 25240
" />
<path d="M67256 22925
L67599 23267
" />
<path d="M66941 22925
L67256 22925
" />
</g>
<g style="fill:#000000; fill-opacity:0.0; 
stroke:#000000; stroke-width:590.551; stroke-opacity:1; 
stroke-linecap:round; stroke-linejoin:round;">
<path d="M56851 38503
L55587 39767
" />
<path d="M55587 39767
L55587 42342
" />
</g>
<g style="fill:#000000; fill-opacity:0.0; 
stroke:#000000; stroke-width:196.85; stroke-opacity:1; 
stroke-linecap:round; stroke-linejoin:round;">
<path d="M67323 22342
L67579 22342
" />
<path d="M67579 22342
L67973 22736
" />
<path d="M64370 30452
L63886 30937
" />
<path d="M67973 22736
L67973 28622
" />
<path d="M67973 28622
L66142 30452
" />
<path d="M66142 30452
L64370 30452
" />
<path d="M63886 30937
L63886 31496
" />
</g>
<g style="fill:#000000; fill-opacity:0.0; 
stroke:#000000; stroke-width:157.48; stroke-opacity:1; 
stroke-linecap:round; stroke-linejoin:round;">
<path d="M63941 22925
L63941 22456
" />
<path d="M63941 22456
L64055 22342
" />
<path d="M64055 22342
L67323 22342
" />
<path d="M63941 22925
L63941 22956
" />
</g>
<g style="fill:#000000; fill-opacity:0.0; 
stroke:#000000; stroke-width:196.85; stroke-opacity:1; 
stroke-linecap:round; stroke-linejoin:round;">
<path d="M67697 22007
L69193 22007
" />
<path d="M69193 22007
L69961 22775
" />
<path d="M69961 22775
L69961 28641
" />
<path d="M69961 28641
L69193 29409
" />
<path d="M62886 31940
L62886 31496
" />
<path d="M69193 29409
L68268 29409
" />
<path d="M63130 32185
L62886 31940
" />
<path d="M68268 29409
L67933 29744
" />
<path d="M67933 29744
L67933 31811
" />
<path d="M67933 31811
L67559 32185
" />
<path d="M67559 32185
L63130 32185
" />
</g>
<g style="fill:#000000; fill-opacity:0.0; 
stroke:#000000; stroke-width:157.48; stroke-opacity:1; 
stroke-linecap:round; stroke-linejoin:round;">
<path d="M67697 22007
L63111 22007
" />
<path d="M62941 22177
L62941 22452
" />
<path d="M62941 22452
L62941 22925
" />
<path d="M63111 22007
L62941 22177
" />
</g>
<g style="fill:#000000; fill-opacity:0.0; 
stroke:#000000; stroke-width:196.85; stroke-opacity:1; 
stroke-linecap:round; stroke-linejoin:round;">
<path d="M62941 22925
L62965 22925
" />
</g>
<g style="fill:#000000; fill-opacity:0.0; 
stroke:#000000; stroke-width:393.701; stroke-opacity:1; 
stroke-linecap:round; stroke-linejoin:round;">
<path d="M68425 38011
L67205 36791
" />
<path d="M67205 36791
L67205 35905
" />
<path d="M68425 38503
L68425 38011
" />
<path d="M66772 26377
L64886 26377
" />
<path d="M66142 31496
L64886 31496
" />
<path d="M67166 31496
L66142 31496
" />
</g>
<g style="fill:#000000; fill-opacity:0.0; 
stroke:#000000; stroke-width:590.551; stroke-opacity:1; 
stroke-linecap:round; stroke-linejoin:round;">
<path d="M51894 26377
L51894 28622
" />
<path d="M48662 28622
L51894 28622
" />
<path d="M51894 28622
L51894 31496
" />
<path d="M47941 27901
L48662 28622
" />
<path d="M47941 23925
L47941 27901
" />
<path d="M50748 35039
L51894 33893
" />
<path d="M51894 33893
L51894 31496
" />
<path d="M50748 42480
L50748 35039
" />
<path d="M51693 43425
L50748 42480
" />
<path d="M57992 43425
L51693 43425
" />
<path d="M58587 42830
L57992 43425
" />
<path d="M58587 42342
L58587 42830
" />
<path d="M67244 41220
L66122 42342
" />
<path d="M66122 42342
L58587 42342
" />
<path d="M67244 40353
L67244 41220
" />
<path d="M68425 38503
L68425 39172
" />
<path d="M68425 39172
L67244 40353
" />
</g>
<g style="fill:#000000; fill-opacity:0.0; 
stroke:#000000; stroke-width:196.85; stroke-opacity:1; 
stroke-linecap:round; stroke-linejoin:round;">
<path d="M55945 27204
L55587 26846
" />
<path d="M55587 26846
L55587 26397
" />
<path d="M60512 26062
L60512 26692
" />
<path d="M60512 26692
L60000 27204
" />
<path d="M60847 25728
L60512 26062
" />
<path d="M62658 25728
L60847 25728
" />
<path d="M62886 25956
L62658 25728
" />
<path d="M62886 26377
L62886 25956
" />
<path d="M55945 27204
L60000 27204
" />
<path d="M56181 25295
L51181 25295
" />
<path d="M56587 25700
L56181 25295
" />
<path d="M56587 26397
L56587 25700
" />
<path d="M51181 25295
L50894 25582
" />
<path d="M50894 25582
L50894 26377
" />
<path d="M57587 26397
L56587 26397
" />
<path d="M58937 25275
L58587 25625
" />
<path d="M58587 25625
L58587 26397
" />
<path d="M63465 25275
L58937 25275
" />
<path d="M63886 25696
L63465 25275
" />
<path d="M63886 26377
L63886 25696
" />
</g> 
</svg>
