M48
;DRILL file {KiCad 4.0.1-3.201512221402+6198~38~ubuntu14.04.1-stable} date mar 09 feb 2016 12:07:54 CST
;FORMAT={-:-/ absolute / metric / decimal}
FMAT,2
METRIC,TZ
T1C0.762
T2C0.813
T3C1.000
T4C1.524
T5C3.175
T6C3.200
%
G90
G05
M71
T1
X213.33Y-111.15
T2
X107.036Y-113.1
X109.576Y-113.1
X112.116Y-113.1
X114.656Y-113.1
X116.18Y-64.84
X117.196Y-113.1
X118.72Y-64.84
X119.736Y-113.1
X121.26Y-64.84
X122.276Y-113.1
X123.8Y-64.84
X124.816Y-113.1
X126.34Y-64.84
X128.88Y-64.84
X128.88Y-113.1
X131.42Y-113.1
X133.96Y-64.84
X133.96Y-113.1
X136.5Y-64.84
X136.5Y-113.1
X139.04Y-64.84
X139.04Y-113.1
X141.58Y-64.84
X141.58Y-113.1
X144.12Y-64.84
X144.12Y-113.1
X146.66Y-64.84
X146.66Y-113.1
X149.2Y-64.84
X151.74Y-64.84
X151.74Y-113.1
X154.28Y-113.1
X156.82Y-64.84
X156.82Y-113.1
X159.36Y-64.84
X159.36Y-113.1
X161.9Y-64.84
X161.9Y-113.1
X164.44Y-64.84
X164.44Y-113.1
X166.98Y-64.84
X166.98Y-113.1
X169.52Y-64.84
X169.52Y-113.1
X172.06Y-64.84
X174.6Y-64.84
X177.14Y-69.92
X177.14Y-72.46
X177.14Y-75.
X177.14Y-77.54
X177.14Y-80.08
X177.14Y-82.62
X177.14Y-85.16
X177.14Y-87.7
X177.14Y-90.24
X177.14Y-92.78
X177.14Y-95.32
X177.14Y-97.86
X177.14Y-100.4
X177.14Y-102.94
X177.14Y-105.48
X177.14Y-108.02
X177.14Y-110.56
X177.14Y-113.1
X179.68Y-69.92
X179.68Y-72.46
X179.68Y-75.
X179.68Y-77.54
X179.68Y-80.08
X179.68Y-82.62
X179.68Y-85.16
X179.68Y-87.7
X179.68Y-90.24
X179.68Y-92.78
X179.68Y-95.32
X179.68Y-97.86
X179.68Y-100.4
X179.68Y-102.94
X179.68Y-105.48
X179.68Y-108.02
X179.68Y-110.56
X179.68Y-113.1
T3
X82.05Y-133.85
X82.05Y-141.75
X84.59Y-133.85
X84.59Y-141.75
X87.13Y-133.85
X87.13Y-141.75
X89.67Y-133.85
X89.67Y-141.75
X92.21Y-133.85
X92.21Y-141.75
X94.75Y-133.85
X94.75Y-141.75
X107.05Y-133.85
X107.05Y-141.75
X109.59Y-133.85
X109.59Y-141.75
X112.13Y-133.85
X112.13Y-141.75
X114.67Y-133.85
X114.67Y-141.75
X117.21Y-133.85
X117.21Y-141.75
X119.75Y-133.85
X119.75Y-141.75
X132.05Y-133.85
X132.05Y-141.75
X134.59Y-133.85
X134.59Y-141.75
X137.13Y-133.85
X137.13Y-141.75
X139.67Y-133.85
X139.67Y-141.75
X142.21Y-133.85
X142.21Y-141.75
X144.75Y-133.85
X144.75Y-141.75
X157.05Y-133.85
X157.05Y-141.75
X159.59Y-133.85
X159.59Y-141.75
X162.13Y-133.85
X162.13Y-141.75
X164.67Y-133.85
X164.67Y-141.75
X167.21Y-133.85
X167.21Y-141.75
X169.75Y-133.85
X169.75Y-141.75
X182.05Y-133.85
X182.05Y-141.75
X184.59Y-133.85
X184.59Y-141.75
X187.13Y-133.85
X187.13Y-141.75
X189.67Y-133.85
X189.67Y-141.75
X192.21Y-133.85
X192.21Y-141.75
X194.75Y-133.85
X194.75Y-141.75
X207.05Y-133.85
X207.05Y-141.75
X209.59Y-133.85
X209.59Y-141.75
X210.79Y-70.65
X210.79Y-111.15
X212.13Y-133.85
X212.13Y-141.75
X213.33Y-70.65
X214.67Y-133.85
X214.67Y-141.75
X215.87Y-70.65
X215.87Y-111.15
X217.21Y-133.85
X217.21Y-141.75
X218.41Y-70.65
X218.41Y-111.15
X219.75Y-133.85
X219.75Y-141.75
T4
X217.43Y-118.81
X217.43Y-123.89
T5
X97.13Y-64.84
X98.4Y-113.1
X173.33Y-113.1
X179.68Y-64.84
T6
X78.4Y-53.8
X78.4Y-140.8
X226.4Y-53.8
X226.4Y-140.8
T0
M30
