G04 #@! TF.FileFunction,Legend,Bot*
%FSLAX46Y46*%
G04 Gerber Fmt 4.6, Leading zero omitted, Abs format (unit mm)*
G04 Created by KiCad (PCBNEW 4.0.1-3.201512221402+6198~38~ubuntu14.04.1-stable) date mar 09 feb 2016 12:07:44 CST*
%MOMM*%
G01*
G04 APERTURE LIST*
%ADD10C,0.100000*%
%ADD11C,0.381000*%
%ADD12C,0.304800*%
G04 APERTURE END LIST*
D10*
D11*
X182220000Y-62300000D02*
X83160000Y-62300000D01*
X180950000Y-115640000D02*
X83160000Y-115640000D01*
X182220000Y-102940000D02*
X182220000Y-114370000D01*
X182220000Y-114370000D02*
X180950000Y-115640000D01*
X83160000Y-62300000D02*
X83160000Y-115640000D01*
X182220000Y-102940000D02*
X184760000Y-100400000D01*
X184760000Y-100400000D02*
X184760000Y-67380000D01*
X184760000Y-67380000D02*
X182220000Y-64840000D01*
X182220000Y-64840000D02*
X182220000Y-62300000D01*
D12*
X90090571Y-120066857D02*
X89872857Y-120139429D01*
X89510000Y-120139429D01*
X89364857Y-120066857D01*
X89292286Y-119994286D01*
X89219714Y-119849143D01*
X89219714Y-119704000D01*
X89292286Y-119558857D01*
X89364857Y-119486286D01*
X89510000Y-119413714D01*
X89800286Y-119341143D01*
X89945428Y-119268571D01*
X90018000Y-119196000D01*
X90090571Y-119050857D01*
X90090571Y-118905714D01*
X90018000Y-118760571D01*
X89945428Y-118688000D01*
X89800286Y-118615429D01*
X89437428Y-118615429D01*
X89219714Y-118688000D01*
X88566571Y-120139429D02*
X88566571Y-118615429D01*
X88566571Y-119341143D02*
X87695714Y-119341143D01*
X87695714Y-120139429D02*
X87695714Y-118615429D01*
X86970000Y-120139429D02*
X86970000Y-118615429D01*
X86244286Y-119341143D02*
X85736286Y-119341143D01*
X85518572Y-120139429D02*
X86244286Y-120139429D01*
X86244286Y-118615429D01*
X85518572Y-118615429D01*
X84139715Y-120139429D02*
X84865429Y-120139429D01*
X84865429Y-118615429D01*
X83631715Y-120139429D02*
X83631715Y-118615429D01*
X83268858Y-118615429D01*
X83051143Y-118688000D01*
X82906001Y-118833143D01*
X82833429Y-118978286D01*
X82760858Y-119268571D01*
X82760858Y-119486286D01*
X82833429Y-119776571D01*
X82906001Y-119921714D01*
X83051143Y-120066857D01*
X83268858Y-120139429D01*
X83631715Y-120139429D01*
X81309429Y-120139429D02*
X82180286Y-120139429D01*
X81744858Y-120139429D02*
X81744858Y-118615429D01*
X81890001Y-118833143D01*
X82035143Y-118978286D01*
X82180286Y-119050857D01*
M02*
