G04 #@! TF.FileFunction,Copper,L2,Bot,Signal*
%FSLAX46Y46*%
G04 Gerber Fmt 4.6, Leading zero omitted, Abs format (unit mm)*
G04 Created by KiCad (PCBNEW 4.0.1-3.201512221402+6198~38~ubuntu14.04.1-stable) date mar 09 feb 2016 12:07:44 CST*
%MOMM*%
G01*
G04 APERTURE LIST*
%ADD10C,0.100000*%
%ADD11C,3.200000*%
%ADD12O,1.524000X2.540000*%
%ADD13C,3.937000*%
%ADD14C,1.524000*%
%ADD15C,1.800000*%
%ADD16R,2.540000X2.540000*%
%ADD17C,2.540000*%
%ADD18C,0.700000*%
G04 APERTURE END LIST*
D10*
D11*
X226400000Y-140800000D03*
X226400000Y-53800000D03*
X78400000Y-53800000D03*
D12*
X151740000Y-113100000D03*
X154280000Y-113100000D03*
X156820000Y-113100000D03*
X159360000Y-113100000D03*
X161900000Y-113100000D03*
X164440000Y-113100000D03*
X166980000Y-113100000D03*
X169520000Y-113100000D03*
X174600000Y-64840000D03*
X172060000Y-64840000D03*
X169520000Y-64840000D03*
X166980000Y-64840000D03*
X156820000Y-64840000D03*
X151740000Y-64840000D03*
X149200000Y-64840000D03*
X159360000Y-64840000D03*
X161900000Y-64840000D03*
X164440000Y-64840000D03*
X146660000Y-64840000D03*
X144120000Y-64840000D03*
X141580000Y-64840000D03*
X133960000Y-64840000D03*
X136500000Y-64840000D03*
X139040000Y-64840000D03*
X128880000Y-64840000D03*
X126340000Y-64840000D03*
X123800000Y-64840000D03*
X118720000Y-64840000D03*
X116180000Y-64840000D03*
X146660000Y-113100000D03*
X144120000Y-113100000D03*
X141580000Y-113100000D03*
X139040000Y-113100000D03*
X136500000Y-113100000D03*
X133960000Y-113100000D03*
X131420000Y-113100000D03*
X128880000Y-113100000D03*
X124816000Y-113100000D03*
X122276000Y-113100000D03*
X119736000Y-113100000D03*
X117196000Y-113100000D03*
X114656000Y-113100000D03*
X112116000Y-113100000D03*
X109576000Y-113100000D03*
X107036000Y-113100000D03*
X121260000Y-64840000D03*
D13*
X179680000Y-64840000D03*
X173330000Y-113100000D03*
X98400000Y-113100000D03*
X97130000Y-64840000D03*
D14*
X177140000Y-110560000D03*
X179680000Y-110560000D03*
X177140000Y-108020000D03*
X179680000Y-108020000D03*
X177140000Y-105480000D03*
X179680000Y-105480000D03*
X177140000Y-102940000D03*
X179680000Y-102940000D03*
X177140000Y-113100000D03*
X179680000Y-113100000D03*
X179680000Y-100400000D03*
X177140000Y-100400000D03*
X177140000Y-97860000D03*
X179680000Y-97860000D03*
X177140000Y-95320000D03*
X179680000Y-95320000D03*
X177140000Y-92780000D03*
X179680000Y-92780000D03*
X177140000Y-90240000D03*
X179680000Y-90240000D03*
X177140000Y-87700000D03*
X179680000Y-87700000D03*
X177140000Y-85160000D03*
X179680000Y-85160000D03*
X177140000Y-82620000D03*
X179680000Y-82620000D03*
X177140000Y-80080000D03*
X179680000Y-80080000D03*
X177140000Y-77540000D03*
X179680000Y-77540000D03*
X177140000Y-75000000D03*
X179680000Y-75000000D03*
X177140000Y-72460000D03*
X179680000Y-72460000D03*
X177140000Y-69920000D03*
X179680000Y-69920000D03*
D15*
X210790000Y-111150000D03*
X213330000Y-111150000D03*
X215870000Y-111150000D03*
X218410000Y-111150000D03*
X210790000Y-70650000D03*
X213330000Y-70650000D03*
X215870000Y-70650000D03*
X218410000Y-70650000D03*
X219750000Y-133850000D03*
X217210000Y-133850000D03*
X214670000Y-133850000D03*
X212130000Y-133850000D03*
X209590000Y-133850000D03*
X207050000Y-133850000D03*
X219750000Y-141750000D03*
X217210000Y-141750000D03*
X214670000Y-141750000D03*
X212130000Y-141750000D03*
X209590000Y-141750000D03*
X207050000Y-141750000D03*
X194750000Y-133850000D03*
X192210000Y-133850000D03*
X189670000Y-133850000D03*
X187130000Y-133850000D03*
X184590000Y-133850000D03*
X182050000Y-133850000D03*
X194750000Y-141750000D03*
X192210000Y-141750000D03*
X189670000Y-141750000D03*
X187130000Y-141750000D03*
X184590000Y-141750000D03*
X182050000Y-141750000D03*
X169750000Y-133850000D03*
X167210000Y-133850000D03*
X164670000Y-133850000D03*
X162130000Y-133850000D03*
X159590000Y-133850000D03*
X157050000Y-133850000D03*
X169750000Y-141750000D03*
X167210000Y-141750000D03*
X164670000Y-141750000D03*
X162130000Y-141750000D03*
X159590000Y-141750000D03*
X157050000Y-141750000D03*
X144750000Y-133850000D03*
X142210000Y-133850000D03*
X139670000Y-133850000D03*
X137130000Y-133850000D03*
X134590000Y-133850000D03*
X132050000Y-133850000D03*
X144750000Y-141750000D03*
X142210000Y-141750000D03*
X139670000Y-141750000D03*
X137130000Y-141750000D03*
X134590000Y-141750000D03*
X132050000Y-141750000D03*
X119750000Y-133850000D03*
X117210000Y-133850000D03*
X114670000Y-133850000D03*
X112130000Y-133850000D03*
X109590000Y-133850000D03*
X107050000Y-133850000D03*
X119750000Y-141750000D03*
X117210000Y-141750000D03*
X114670000Y-141750000D03*
X112130000Y-141750000D03*
X109590000Y-141750000D03*
X107050000Y-141750000D03*
X94750000Y-133850000D03*
X92210000Y-133850000D03*
X89670000Y-133850000D03*
X87130000Y-133850000D03*
X84590000Y-133850000D03*
X82050000Y-133850000D03*
X94750000Y-141750000D03*
X92210000Y-141750000D03*
X89670000Y-141750000D03*
X87130000Y-141750000D03*
X84590000Y-141750000D03*
X82050000Y-141750000D03*
D16*
X217430000Y-118810000D03*
D17*
X217430000Y-123890000D03*
D11*
X78400000Y-140800000D03*
D18*
X89670000Y-133850000D02*
X89670000Y-102730000D01*
X89670000Y-102730000D02*
X96600000Y-95800000D01*
X96600000Y-95800000D02*
X164800000Y-95800000D01*
X164800000Y-95800000D02*
X167500000Y-93100000D01*
X169300000Y-75000000D02*
X177140000Y-75000000D01*
X167500000Y-93100000D02*
X167500000Y-76800000D01*
X167500000Y-76800000D02*
X169300000Y-75000000D01*
X213700000Y-130800000D02*
X214670000Y-131770000D01*
X214670000Y-131770000D02*
X214670000Y-133850000D01*
X205900000Y-130800000D02*
X213700000Y-130800000D01*
X204400000Y-132300000D02*
X205900000Y-130800000D01*
X204400000Y-135400000D02*
X204400000Y-132300000D01*
X202500000Y-137300000D02*
X204400000Y-135400000D01*
X190900000Y-137300000D02*
X202500000Y-137300000D01*
X189670000Y-136070000D02*
X190900000Y-137300000D01*
X189670000Y-133850000D02*
X189670000Y-136070000D01*
X188800000Y-130900000D02*
X189670000Y-131770000D01*
X189670000Y-131770000D02*
X189670000Y-133850000D01*
X181000000Y-130900000D02*
X188800000Y-130900000D01*
X179500000Y-132400000D02*
X181000000Y-130900000D01*
X179500000Y-135600000D02*
X179500000Y-132400000D01*
X177700000Y-137400000D02*
X179500000Y-135600000D01*
X166400000Y-137400000D02*
X177700000Y-137400000D01*
X164670000Y-135670000D02*
X166400000Y-137400000D01*
X164670000Y-133850000D02*
X164670000Y-135670000D01*
X163700000Y-130800000D02*
X164670000Y-131770000D01*
X164670000Y-131770000D02*
X164670000Y-133850000D01*
X154800000Y-130800000D02*
X163700000Y-130800000D01*
X153300000Y-132300000D02*
X154800000Y-130800000D01*
X153300000Y-135800000D02*
X153300000Y-132300000D01*
X151800000Y-137300000D02*
X153300000Y-135800000D01*
X140800000Y-137300000D02*
X151800000Y-137300000D01*
X139670000Y-136170000D02*
X140800000Y-137300000D01*
X139670000Y-133850000D02*
X139670000Y-136170000D01*
X138700000Y-130800000D02*
X139670000Y-131770000D01*
X139670000Y-131770000D02*
X139670000Y-133850000D01*
X130900000Y-130800000D02*
X138700000Y-130800000D01*
X129400000Y-132300000D02*
X130900000Y-130800000D01*
X129400000Y-135600000D02*
X129400000Y-132300000D01*
X127600000Y-137400000D02*
X129400000Y-135600000D01*
X115900000Y-137400000D02*
X127600000Y-137400000D01*
X114670000Y-136170000D02*
X115900000Y-137400000D01*
X114670000Y-133850000D02*
X114670000Y-136170000D01*
X113700000Y-130600000D02*
X114670000Y-131570000D01*
X114670000Y-131570000D02*
X114670000Y-133850000D01*
X105700000Y-130600000D02*
X113700000Y-130600000D01*
X104000000Y-132300000D02*
X105700000Y-130600000D01*
X104000000Y-136100000D02*
X104000000Y-132300000D01*
X102700000Y-137400000D02*
X104000000Y-136100000D01*
X90800000Y-137400000D02*
X102700000Y-137400000D01*
X89670000Y-136270000D02*
X90800000Y-137400000D01*
X89670000Y-133850000D02*
X89670000Y-136270000D01*
X192210000Y-84710000D02*
X192210000Y-85500000D01*
X192210000Y-85500000D02*
X192210000Y-127490000D01*
X186800000Y-75000000D02*
X192210000Y-80410000D01*
X192210000Y-80410000D02*
X192210000Y-85500000D01*
X179680000Y-75000000D02*
X186800000Y-75000000D01*
X92210000Y-127400000D02*
X117200000Y-127400000D01*
X117200000Y-127400000D02*
X142300000Y-127400000D01*
X117210000Y-133850000D02*
X117210000Y-127410000D01*
X117210000Y-127410000D02*
X117200000Y-127400000D01*
X142210000Y-127490000D02*
X142300000Y-127400000D01*
X142300000Y-127400000D02*
X167400000Y-127400000D01*
X142210000Y-133850000D02*
X142210000Y-127490000D01*
X167400000Y-127400000D02*
X192300000Y-127400000D01*
X167210000Y-133850000D02*
X167210000Y-127590000D01*
X167210000Y-127590000D02*
X167400000Y-127400000D01*
X192300000Y-127400000D02*
X214900000Y-127400000D01*
X192210000Y-133850000D02*
X192210000Y-127490000D01*
X192210000Y-127490000D02*
X192300000Y-127400000D01*
X214900000Y-127400000D02*
X217210000Y-129710000D01*
X217210000Y-129710000D02*
X217210000Y-133850000D01*
X92210000Y-133850000D02*
X92210000Y-127400000D01*
X87130000Y-133850000D02*
X87130000Y-101470000D01*
X164800000Y-74900000D02*
X167240000Y-72460000D01*
X87130000Y-101470000D02*
X94700000Y-93900000D01*
X162800000Y-93900000D02*
X164800000Y-91900000D01*
X94700000Y-93900000D02*
X162800000Y-93900000D01*
X164800000Y-91900000D02*
X164800000Y-74900000D01*
X167240000Y-72460000D02*
X177140000Y-72460000D01*
X88500000Y-139100000D02*
X112200000Y-139100000D01*
X112200000Y-139100000D02*
X137400000Y-139100000D01*
X112130000Y-133850000D02*
X112130000Y-139030000D01*
X112130000Y-139030000D02*
X112200000Y-139100000D01*
X137400000Y-139100000D02*
X162200000Y-139100000D01*
X137130000Y-133850000D02*
X137130000Y-138830000D01*
X137130000Y-138830000D02*
X137400000Y-139100000D01*
X162200000Y-139100000D02*
X187600000Y-139100000D01*
X162130000Y-133850000D02*
X162130000Y-139030000D01*
X162130000Y-139030000D02*
X162200000Y-139100000D01*
X187600000Y-139100000D02*
X209900000Y-139100000D01*
X187130000Y-133850000D02*
X187130000Y-138630000D01*
X187130000Y-138630000D02*
X187600000Y-139100000D01*
X209900000Y-139100000D02*
X212130000Y-136870000D01*
X212130000Y-136870000D02*
X212130000Y-133850000D01*
X87130000Y-137730000D02*
X88500000Y-139100000D01*
X87130000Y-133850000D02*
X87130000Y-137730000D01*
M02*
